<svg width="176" height="59" viewBox="0 0 176 59" fill="none" xmlns="http://www.w3.org/2000/svg">
<g clip-path="url(#clip0_1_202)">
<path d="M28.3473 56.0965C27.9913 56.0841 27.641 56.0673 27.2872 56.0404C27.1298 56.0281 26.969 56.0169 26.8116 56.0024C26.5688 55.9822 26.3304 55.9554 26.0875 55.9262C25.9799 55.9139 25.8746 55.8993 25.766 55.8848C25.4855 55.849 25.2083 55.8086 24.9311 55.7605C24.818 55.7425 24.7004 55.7224 24.5863 55.7011C24.0729 55.6104 23.5618 55.5041 23.0594 55.3831C22.9164 55.3483 22.7734 55.3125 22.6304 55.2745C22.5084 55.2453 22.382 55.2128 22.2633 55.177C21.9806 55.1009 21.7001 55.018 21.4196 54.9295C21.2965 54.8915 21.1745 54.8534 21.0514 54.812C20.8996 54.765 20.7476 54.7112 20.5957 54.6586C20.4671 54.6138 20.3385 54.5702 20.211 54.5198C20.1267 54.4906 20.0446 54.4616 19.9626 54.4291C19.8163 54.3765 19.6732 54.3204 19.5301 54.2611C18.9525 54.0337 18.3858 53.7829 17.8315 53.5153C17.6918 53.4471 17.5521 53.3798 17.4146 53.3093C16.8779 53.0405 16.3524 52.7516 15.8356 52.4426C15.6982 52.3631 15.5618 52.2802 15.4265 52.1951C13.842 51.2164 12.3618 50.0665 11.0135 48.7665C10.8992 48.6601 10.7884 48.5515 10.6809 48.4395C10.57 48.3309 10.4591 48.2178 10.3538 48.1069C10.243 47.9983 10.1376 47.8863 10.0323 47.771C9.94806 47.6826 9.86268 47.5885 9.78059 47.4967C9.44244 47.1249 9.11868 46.7453 8.80263 46.3557C8.60413 46.1138 8.41126 45.8663 8.22498 45.6167C8.1285 45.489 8.03541 45.3625 7.94448 45.236C7.85138 45.1095 7.75819 44.9796 7.67065 44.8497C7.58639 44.7321 7.5043 44.6134 7.4256 44.4925C7.32912 44.3514 7.23602 44.2058 7.14284 44.0625C7.0552 43.9293 6.97094 43.7971 6.88894 43.6617C6.8013 43.5261 6.71931 43.3907 6.6406 43.2552C6.39555 42.8453 6.16159 42.43 5.9376 42.0021C5.86218 41.8599 5.78903 41.7189 5.71916 41.5744C5.64374 41.4333 5.57284 41.2877 5.50626 41.1433C5.4364 40.9966 5.36653 40.851 5.29892 40.7044L20.3152 23.8487C25.2194 18.896 33.1993 18.896 38.1025 23.8487L53.1221 40.7044C52.8005 41.4031 52.4479 42.0895 52.0687 42.7591C52.0077 42.8655 51.9456 42.9718 51.8813 43.0783C51.8258 43.1724 51.7704 43.2641 51.7149 43.3582C51.6185 43.5206 51.5187 43.6796 51.4178 43.8386C48.7767 47.9985 45.0611 51.3297 40.6703 53.4696C37.0857 55.2231 33.2282 56.1133 29.2055 56.1133C28.9161 56.1133 28.63 56.1077 28.344 56.0987M2.85732 29.4989C2.85732 14.8245 14.6781 2.889 29.2077 2.889C43.7373 2.889 55.5636 14.8245 55.5636 29.4989C55.5636 32.3408 55.1289 35.1145 54.2641 37.7739L40.1226 23.4947C34.1041 17.4167 24.3146 17.4167 18.2961 23.4947L4.15462 37.7773C3.29091 35.1179 2.85619 32.342 2.85619 29.5M0 29.4989C0 33.1571 0.654196 36.718 1.9404 40.0929C2.04797 40.3796 2.16213 40.6651 2.27967 40.9473C6.85895 51.9131 17.4279 59 29.2077 59C33.6672 59 37.9438 58.0124 41.9188 56.064C46.7809 53.6935 50.8967 50.0061 53.8239 45.3961C54.7198 43.9841 55.5026 42.4869 56.1413 40.945L56.1735 40.8655C56.2755 40.6236 56.372 40.3818 56.4629 40.1399C57.7624 36.7493 58.421 33.1739 58.421 29.4989C58.421 13.2333 45.3162 0 29.2078 0C13.0993 0 9.40342e-05 13.2321 9.40342e-05 29.4989H0Z" fill="#4D4D33"/>
<path d="M101.193 43.8545H97.1781C95.041 38.3422 92.9317 32.8672 90.8316 27.4204C88.7316 21.9828 86.6407 16.4985 84.5407 10.9862L71.2001 43.8546H69.5719L84.92 5.89434H86.6038C89.0276 12.2475 91.4515 18.5726 93.8753 24.8698C96.2992 31.1669 98.7416 37.4921 101.193 43.8453" fill="#031C2C"/>
<path d="M120.825 4.52087C123.535 4.52087 126.07 5.03472 128.42 6.05312C130.77 7.07152 132.833 8.48231 134.6 10.2668L133.027 12.126C131.51 10.2668 129.697 8.78125 127.606 7.68812C125.506 6.59499 123.248 6.04381 120.825 6.04381C118.401 6.04381 116.467 6.52034 114.478 7.46391C112.489 8.41688 110.75 9.70621 109.27 11.3506C107.789 12.9949 106.624 14.9196 105.773 17.1338C104.921 19.3387 104.496 21.7119 104.496 24.2251C104.496 26.7383 104.921 29.1021 105.773 31.2884C106.624 33.4839 107.789 35.3993 109.27 37.0436C110.75 38.6879 112.489 39.9866 114.478 40.9303C116.467 41.8832 118.586 42.3504 120.825 42.3504C123.063 42.3504 125.034 41.902 126.958 41.005C128.873 40.1081 130.566 38.8935 132.028 37.3612C133.49 35.829 134.674 34.0165 135.581 31.9424C136.487 29.859 136.987 27.6166 137.098 25.2062H120.825V23.6739H140.354V24.2252C140.354 26.9253 139.836 29.476 138.809 31.8677C137.782 34.2595 136.385 36.3523 134.637 38.1368C132.879 39.9307 130.825 41.3415 128.457 42.3785C126.089 43.4156 123.544 43.9388 120.834 43.9388C118.123 43.9388 115.579 43.4156 113.211 42.3785C110.842 41.3414 108.779 39.9213 107.031 38.1368C105.273 36.3523 103.885 34.2595 102.858 31.8677C101.831 29.476 101.313 26.9253 101.313 24.2252C101.313 21.5251 101.831 18.9184 102.858 16.5266C103.885 14.1349 105.282 12.0513 107.031 10.2856C108.789 8.51042 110.842 7.10903 113.211 6.07192C115.579 5.03482 118.123 4.51166 120.834 4.51166" fill="#031C2C"/>
<path d="M144.536 5.89425H157.229C159.801 5.89425 162.215 6.39879 164.5 7.39848C166.776 8.40748 168.765 9.76224 170.468 11.4814C172.17 13.2005 173.511 15.2092 174.511 17.5075C175.51 19.8059 176 22.2725 176 24.8977C176 27.523 175.5 29.9896 174.511 32.288C173.511 34.5863 172.17 36.5951 170.468 38.3141C168.765 40.0333 166.776 41.3879 164.5 42.397C162.225 43.406 159.801 43.9012 157.229 43.9012H144.536V5.89425ZM148.274 7.42649V42.369H155.434C157.821 42.369 160.051 41.9112 162.132 40.9956C164.214 40.08 166.036 38.8281 167.609 37.2398C169.182 35.6515 170.422 33.8016 171.328 31.6808C172.235 29.5599 172.688 27.2989 172.688 24.8884C172.688 22.478 172.235 20.217 171.328 18.0961C170.421 15.9753 169.182 14.1254 167.609 12.5371C166.036 10.9488 164.214 9.69681 162.132 8.78126C160.051 7.86561 157.821 7.40788 155.434 7.40788H148.274V7.42649Z" fill="#031C2C"/>
<path d="M76.5104 52.5995V56.2899H75.8628L75.798 54.8604C75.2984 55.7947 74.4103 56.4114 73.1521 56.4114C71.1075 56.4114 69.5718 54.8044 69.5718 52.8517C69.5718 50.8991 71.1908 49.1893 73.1984 49.1893C75.2059 49.1893 76.094 50.0583 76.4826 51.6278H75.6222C75.2799 50.4974 74.2252 49.9554 73.2076 49.9554C71.6071 49.9554 70.3767 51.17 70.3767 52.861C70.3767 54.5521 71.5239 55.6639 73.1429 55.6639C74.7619 55.6639 75.4557 54.6642 75.6408 53.3656V52.6181H76.4919L76.5104 52.5994V52.5995Z" fill="#A5B2BA"/>
<path d="M85.7248 52.7957C85.7248 54.8044 84.1151 56.4114 82.1261 56.4114C80.1371 56.4114 78.5273 54.8044 78.5273 52.7957C78.5273 50.787 80.1371 49.18 82.1261 49.18C84.1151 49.18 85.7248 50.787 85.7248 52.7957ZM84.9107 52.7957C84.9107 51.2167 83.6895 49.9368 82.1261 49.9368C80.5627 49.9368 79.3414 51.2074 79.3414 52.7957C79.3414 54.384 80.5627 55.6546 82.1261 55.6546C83.6895 55.6546 84.9107 54.384 84.9107 52.7957Z" fill="#A5B2BA"/>
<path d="M92.4413 55.5425V56.29H87.8249V49.3015H88.6297V55.5332H92.4413V55.5425Z" fill="#A5B2BA"/>
<path d="M100.296 52.749C100.296 54.8231 98.7786 56.2899 96.6416 56.2899H94.2084V49.3014H96.6416C98.7787 49.3014 100.296 50.7309 100.296 52.7396V52.749ZM99.4725 52.749C99.4725 51.1887 98.2883 50.0583 96.6416 50.0583H95.0134V55.5425H96.6416C98.2883 55.5425 99.4725 54.384 99.4725 52.749Z" fill="#A5B2BA"/>
<path d="M110.796 56.29L109.889 55.4678C109.288 56.0938 108.557 56.4208 107.66 56.4208C106.189 56.4208 105.208 55.5705 105.208 54.356C105.208 53.1414 105.81 52.749 106.614 52.422C106.18 51.9175 105.976 51.4971 105.976 50.9832C105.976 49.9088 106.827 49.1426 107.993 49.1426C109.159 49.1426 109.862 49.8433 110.001 51.0112H109.223C109.122 50.2357 108.631 49.8433 107.984 49.8433C107.336 49.8433 106.781 50.3199 106.781 51.0019C106.781 51.6839 107.392 52.2538 108.548 53.2816L109.815 54.4402L110.898 52.8706H111.712L110.38 54.842C110.361 54.8607 110.352 54.8794 110.324 54.9167L111.832 56.2808H110.796V56.2901L110.796 56.29ZM109.381 55.0007L107.891 53.6553C107.595 53.3844 107.336 53.1508 107.105 52.9359C106.439 53.2068 105.976 53.6926 105.976 54.356C105.976 55.0193 106.67 55.7293 107.678 55.7293C108.687 55.7293 108.9 55.4678 109.381 55.0007Z" fill="#A5B2BA"/>
<path d="M122.915 52.749C122.915 54.8231 121.398 56.2899 119.261 56.2899H116.828V49.3014H119.261C121.398 49.3014 122.915 50.7309 122.915 52.7396V52.749ZM122.092 52.749C122.092 51.1887 120.908 50.0583 119.261 50.0583H117.633V55.5425H119.261C120.908 55.5425 122.092 54.384 122.092 52.749Z" fill="#A5B2BA"/>
<path d="M125.82 49.3108V56.2993H125.016V49.3108H125.82Z" fill="#A5B2BA"/>
<path d="M132.851 54.3373H129.28L128.429 56.29H127.569L130.696 49.3015H131.455L134.582 56.29H133.721L132.87 54.3373H132.851ZM132.528 53.6086L131.066 50.2638L129.604 53.6086H132.537H132.528Z" fill="#A5B2BA"/>
<path d="M143.074 56.29H142.269V51.086L139.957 54.9539H139.429L137.098 51.0579L137.116 56.29H136.312V49.3015H136.922L139.688 53.9636L142.455 49.3015H143.065V56.29H143.074Z" fill="#A5B2BA"/>
<path d="M152.363 52.7957C152.363 54.8044 150.753 56.4114 148.764 56.4114C146.775 56.4114 145.165 54.8044 145.165 52.7957C145.165 50.787 146.775 49.18 148.764 49.18C150.753 49.18 152.363 50.787 152.363 52.7957ZM151.549 52.7957C151.549 51.2167 150.327 49.9368 148.764 49.9368C147.201 49.9368 145.979 51.2074 145.979 52.7957C145.979 54.384 147.201 55.6546 148.764 55.6546C150.327 55.6546 151.549 54.384 151.549 52.7957Z" fill="#A5B2BA"/>
<path d="M160.365 49.3108V56.2993H159.699L155.277 50.7963V56.2993H154.472V49.3108H155.12L159.56 54.8885V49.3108H160.365Z" fill="#A5B2BA"/>
<path d="M168.849 52.749C168.849 54.8231 167.331 56.2899 165.194 56.2899H162.761V49.3014H165.194C167.332 49.3014 168.849 50.7309 168.849 52.7396V52.749ZM168.025 52.749C168.025 51.1887 166.841 50.0583 165.194 50.0583H163.566V55.5425H165.194C166.841 55.5425 168.025 54.384 168.025 52.749Z" fill="#A5B2BA"/>
<path d="M175.991 51.2261H175.186C175.029 50.3946 174.455 49.8808 173.326 49.8808C172.198 49.8808 171.652 50.3386 171.652 51.1327C171.652 51.9268 172.087 52.0949 172.91 52.2631L174.039 52.478C175.278 52.721 175.982 53.2908 175.982 54.3186C175.982 55.3464 174.945 56.4115 173.391 56.4115C171.837 56.4115 170.653 55.5612 170.505 54.0477H171.3C171.467 55.0941 172.207 55.6827 173.438 55.6827C174.668 55.6827 175.168 55.1969 175.168 54.4121C175.168 53.6273 174.788 53.4217 173.919 53.2722L172.623 53.0106C171.393 52.777 170.801 52.1417 170.801 51.1794C170.801 50.2171 171.8 49.18 173.28 49.18C174.761 49.18 175.824 49.7873 175.991 51.2261H175.991Z" fill="#A5B2BA"/>
</g>
<defs>
<clipPath id="clip0_1_202">
<rect width="176" height="59" fill="white"/>
</clipPath>
</defs>
</svg>
