<svg width="72" height="72" viewBox="0 0 72 72" fill="none" xmlns="http://www.w3.org/2000/svg">
<g clip-path="url(#clip0_1_150)">
<circle cx="36" cy="36" r="36" fill="#010F17"/>
<path d="M22.7454 49.2546H19.7999V40.4182H28.6363V43.3637H24.9839C27.355 46.913 31.405 49.2546 35.9999 49.2546C39.5152 49.2546 42.8866 47.8581 45.3723 45.3724C47.858 42.8867 49.2545 39.5154 49.2545 36H52.1999C52.1999 44.9542 44.9541 52.2 35.9999 52.2C30.5214 52.2 25.6761 49.4755 22.7454 45.3224V49.2546ZM19.7999 36C19.7999 27.0459 27.0457 19.8 35.9999 19.8C41.4785 19.8 46.3237 22.5246 49.2545 26.6777V22.7455H52.1999V31.5819H43.3636V28.6364H47.0159C44.6448 25.0871 40.5948 22.7455 35.9999 22.7455C32.4846 22.7455 29.1133 24.142 26.6275 26.6277C24.1418 29.1134 22.7454 32.4847 22.7454 36H19.7999Z" fill="#DBF227"/>
<path d="M33.4228 31.8768C33.4228 33.2612 34.6894 33.8061 37.3108 34.675C40.8454 35.8973 41.7437 37.6941 41.7437 39.7412C41.7437 43.6144 38.0619 44.3508 37.4728 44.4833V46.3095H34.5274V44.4097C33.6143 44.1446 31.1843 43.2757 30.2565 40.0504L32.7012 39.0637C32.7896 39.3877 33.5554 42.1417 36.2357 42.1417C37.6054 42.1417 39.1517 41.4348 39.1517 39.7706C39.1517 38.3568 38.1208 37.6057 35.7939 36.781C34.1739 36.1919 30.8603 35.2493 30.8603 31.9063C30.8603 31.759 30.875 28.3717 34.5274 27.547V25.6913H37.4728V27.5175C40.0059 27.9888 40.9927 30.1537 41.2136 30.8164L38.8867 31.8032C38.7247 31.2877 38.0177 29.8297 36.0885 29.8297C35.0576 29.8297 33.4228 30.3746 33.4228 31.8768Z" fill="#DBF227"/>
</g>
<defs>
<clipPath id="clip0_1_150">
<rect width="72" height="72" fill="white"/>
</clipPath>
</defs>
</svg>
