<svg width="72" height="72" viewBox="0 0 72 72" fill="none" xmlns="http://www.w3.org/2000/svg">
<g clip-path="url(#clip0_1_143)">
<circle cx="36" cy="36" r="36" fill="#010F17"/>
<path fill-rule="evenodd" clip-rule="evenodd" d="M46.5122 20.1718C48.0102 19.7109 49.688 19.6082 51.0122 20.2703C51.3228 20.4256 51.5746 20.6775 51.7299 20.9881C52.392 22.3122 52.2893 23.99 51.8284 25.488C51.3494 27.0449 50.4087 28.6761 49.0219 30.063L44.0256 35.0592L46.7262 47.3619L45.1586 47.706L46.7323 47.3913C47.0367 48.9131 46.3559 50.1383 45.3191 50.916C45.2063 51.0005 45.083 51.0698 44.9521 51.1222L44.1497 51.4431C42.8152 51.9769 41.1854 51.7708 40.1832 50.4345C40.164 50.4088 40.1455 50.3827 40.1279 50.3559L35.3989 43.1948L32.6399 45.0341V48.99C32.6399 49.4157 32.4708 49.8239 32.1698 50.1249L30.5649 51.7298C30.2249 52.0698 29.7504 52.2395 29.2719 52.1921C28.7934 52.1447 28.3613 51.8853 28.0946 51.4852L25.0628 46.9375L20.515 43.9056C20.1149 43.6389 19.8555 43.2068 19.8081 42.7283C19.7607 42.2499 19.9304 41.7753 20.2704 41.4353L21.8753 39.8304C22.1763 39.5294 22.5845 39.3603 23.0102 39.3603H26.9661L28.8054 36.6014L21.6443 31.8723C21.6176 31.8547 21.5914 31.8362 21.5658 31.817C20.2294 30.8148 20.0233 29.185 20.5571 27.8505C20.5889 27.7711 20.627 27.6943 20.671 27.6209L21.1257 26.863C21.8039 25.5741 23.1689 24.9799 24.6089 25.2679L24.6383 25.274L36.941 27.9746L41.9372 22.9784C43.3241 21.5915 44.9554 20.6509 46.5122 20.1718ZM43.5868 48.0312L40.702 34.8895C40.5847 34.355 40.7478 33.7975 41.1348 33.4106L46.7521 27.7932C47.7727 26.7727 48.437 25.5952 48.7604 24.544C48.9577 23.9028 49.0068 23.3884 48.986 23.0143C48.6118 22.9934 48.0975 23.0425 47.4562 23.2398C46.405 23.5632 45.2275 24.2276 44.207 25.2481L38.5897 30.8654C38.2027 31.2524 37.6452 31.4155 37.1107 31.2982L23.9691 28.4135C23.9583 28.4115 23.9485 28.41 23.9398 28.4089C23.9286 28.4294 23.917 28.4498 23.905 28.4699L23.5073 29.1326C23.4926 29.1887 23.4911 29.2262 23.492 29.2458L31.9194 34.8111C32.2756 35.0463 32.5234 35.4138 32.6081 35.8322C32.6927 36.2506 32.6072 36.6855 32.3704 37.0407L29.1605 41.8555C28.8628 42.302 28.3617 42.5702 27.8251 42.5702H24.2986L27.1104 44.4447C27.2867 44.5622 27.438 44.7135 27.5555 44.8898L29.43 47.7016V44.1752C29.43 43.6385 29.6982 43.1374 30.1447 42.8398L34.9596 39.6298C35.3147 39.3931 35.7496 39.3075 36.168 39.3922C36.5864 39.4768 36.9539 39.7246 37.1891 40.0808L42.7544 48.5082C42.7831 48.5095 42.8501 48.5058 42.9575 48.4628L43.5195 48.238C43.5685 48.1866 43.5843 48.1541 43.5879 48.1461C43.5909 48.1392 43.5927 48.1333 43.5937 48.1225C43.5948 48.1115 43.5962 48.0827 43.5868 48.0312Z" fill="#DBF227"/>
</g>
<defs>
<clipPath id="clip0_1_143">
<rect width="72" height="72" fill="white"/>
</clipPath>
</defs>
</svg>
